<?xml version="1.0" encoding="UTF-8"?>
<svg id="Design" xmlns="http://www.w3.org/2000/svg" viewBox="0 0 11.34 11.34">
  <defs>
    <style>
      .cls-1 {
        fill: #0e0027;
      }

      .cls-1, .cls-2 {
        stroke-width: 0px;
      }

      .cls-2 {
        fill: #52c7e2;
      }
    </style>
  </defs>
  <circle class="cls-2" cx="5.67" cy="5.67" r="5.67"/>
  <path class="cls-1" d="m8.09,4.94l-2.42-3.28-1.37,1.85h0s-1.05,1.43-1.05,1.43c-.69.93-.82,2.29-.31,3.31.49.98,1.46,1.53,2.73,1.53s2.23-.54,2.73-1.53c.51-1.02.39-2.39-.3-3.31Zm-1.57-1.04c.25.34.29.89.1,1.28-.12.24-.39.53-.95.53s-.83-.29-.95-.53c-.2-.39-.15-.94.1-1.28l.85-1.15.85,1.16Zm1.3,4.07c-.38.76-1.14,1.17-2.15,1.17s-1.78-.42-2.16-1.17c-.41-.82-.31-1.9.25-2.64l.23-.31c.03.16.08.31.15.46.28.56.84.89,1.52.89s1.24-.32,1.52-.89c.07-.14.12-.3.15-.46l.23.31c.55.74.65,1.83.25,2.64Z"/>
</svg>