<?xml version="1.0" encoding="UTF-8"?>
<svg id="Design" xmlns="http://www.w3.org/2000/svg" viewBox="0 0 11.34 11.34">
  <defs>
    <style>
      .cls-1 {
        fill: #f26529;
      }

      .cls-1, .cls-2 {
        stroke-width: 0px;
      }

      .cls-2 {
        fill: #0e0027;
      }
    </style>
  </defs>
  <circle class="cls-1" cx="5.67" cy="5.67" r="5.67"/>
  <path class="cls-2" d="m8.35,3.54l-.31-.46-.87,1.48-1.52-3.04-1.53,3.05-.87-1.49-.31.47c-.06.09-1.41,2.2-.66,4.17.53,1.39,1.66,2.1,3.37,2.1,2.07,0,3.11-1.39,3.39-2.22.72-1.92-.65-3.97-.71-4.06Zm.06,3.82h0c-.02.05-.25.71-.93,1.21-.07-.64-.46-1.23-.46-1.23l-.51.77-.84-1.47-.84,1.47-.51-.77s-.43.64-.47,1.32c-.61-.4-.81-.94-.91-1.19-.42-1.12,0-2.35.31-3.03l.92,1.58,1.48-2.95,1.48,2.95.93-1.59c.32.66.75,1.85.35,2.93Z"/>
</svg>