<?xml version="1.0" encoding="UTF-8"?>
<svg id="Design" xmlns="http://www.w3.org/2000/svg" viewBox="0 0 11.34 11.34">
  <defs>
    <style>
      .cls-1 {
        fill: #0e0027;
      }

      .cls-1, .cls-2 {
        stroke-width: 0px;
      }

      .cls-2 {
        fill: #f4efcb;
      }
    </style>
  </defs>
  <circle class="cls-2" cx="5.67" cy="5.67" r="5.67"/>
  <g>
    <path class="cls-1" d="m5.67,9.62c-2.18,0-3.95-1.77-3.95-3.95s1.77-3.95,3.95-3.95,3.95,1.77,3.95,3.95-1.77,3.95-3.95,3.95Zm0-7.26c-1.82,0-3.31,1.48-3.31,3.31s1.48,3.31,3.31,3.31,3.31-1.48,3.31-3.31-1.48-3.31-3.31-3.31Z"/>
    <path class="cls-1" d="m5.67,7.68c-1.11,0-2.01-.9-2.01-2.01s.9-2.01,2.01-2.01,2.01.9,2.01,2.01-.9,2.01-2.01,2.01Zm0-3.38c-.75,0-1.37.61-1.37,1.37s.61,1.37,1.37,1.37,1.37-.61,1.37-1.37-.61-1.37-1.37-1.37Z"/>
  </g>
</svg>