<?xml version="1.0" encoding="UTF-8"?>
<svg id="Design" xmlns="http://www.w3.org/2000/svg" viewBox="0 0 11.34 11.34">
  <defs>
    <style>
      .cls-1 {
        fill: #74c378;
      }

      .cls-1, .cls-2 {
        stroke-width: 0px;
      }

      .cls-2 {
        fill: #0e0027;
      }
    </style>
  </defs>
  <circle class="cls-1" cx="5.67" cy="5.67" r="5.67"/>
  <path class="cls-2" d="m5.73,2.56c-1.08.14-2.1.63-2.87,1.41l-.11.11.35,3.7-.84.84.45.45.84-.84,3.7.35.11-.11c.77-.77,1.27-1.79,1.41-2.87l.44-3.48-3.48.44Zm-2.31,1.76c.66-.61,1.5-1.01,2.39-1.12l2.14-.27L3.7,7.19l-.27-2.87Zm3.6,3.6l-2.87-.27,4.26-4.26-.27,2.14c-.11.89-.51,1.73-1.12,2.39Z"/>
</svg>