<?xml version="1.0" encoding="UTF-8"?>
<svg id="Design" xmlns="http://www.w3.org/2000/svg" viewBox="0 0 11.34 11.34">
  <defs>
    <style>
      .cls-1 {
        fill: #0e0027;
      }

      .cls-1, .cls-2 {
        stroke-width: 0px;
      }

      .cls-2 {
        fill: #5f699f;
      }
    </style>
  </defs>
  <circle class="cls-2" cx="5.67" cy="5.67" r="5.67"/>
  <path class="cls-1" d="m5.7,2.46c-1.29.5-2.21,1.75-2.21,3.21s.92,2.72,2.21,3.21c-1.74-.04-3.13-1.47-3.13-3.21s1.4-3.17,3.13-3.21m.08-.64c-2.13,0-3.85,1.73-3.85,3.85s1.73,3.86,3.85,3.86c1.67,0,3.09-1.06,3.63-2.55-.47.89-1.4,1.49-2.48,1.49-1.55,0-2.8-1.25-2.8-2.8s1.25-2.8,2.8-2.8c1.07,0,2.01.6,2.48,1.49-.54-1.48-1.96-2.54-3.63-2.54h0Z"/>
</svg>